<svg class="animated" id="freepik_stories-jiu-jitsu" xmlns="http://www.w3.org/2000/svg" viewBox="0 0 500 500" version="1.1" xmlns:xlink="http://www.w3.org/1999/xlink" xmlns:svgjs="http://svgjs.com/svgjs"><style>svg#freepik_stories-jiu-jitsu:not(.animated) .animable {opacity: 0;}svg#freepik_stories-jiu-jitsu.animated #freepik--plant-1--inject-3 {animation: 3s Infinite  linear shake;animation-delay: 0s;}svg#freepik_stories-jiu-jitsu.animated #freepik--plant-2--inject-3 {animation: 3s Infinite  linear shake;animation-delay: 0s;}svg#freepik_stories-jiu-jitsu.animated #freepik--Characters--inject-3 {animation: 1.5s Infinite  linear shake;animation-delay: 0s;}            @keyframes shake {                10%, 90% {                    transform: translate3d(-1px, 0, 0);                  }                  20%, 80% {                    transform: translate3d(2px, 0, 0);                  }                  30%, 50%, 70% {                    transform: translate3d(-4px, 0, 0);                  }                  40%, 60% {                    transform: translate3d(4px, 0, 0);                  }            }        </style><g id="freepik--background-complete--inject-3" class="animable" style="transform-origin: 250px 228.23px;"><rect y="382.4" width="500" height="0.25" style="fill: rgb(235, 235, 235); transform-origin: 250px 382.525px;" id="elzmtyboancb" class="animable"></rect><rect x="416.78" y="398.49" width="33.12" height="0.25" style="fill: rgb(235, 235, 235); transform-origin: 433.34px 398.615px;" id="eljivkz2czi7t" class="animable"></rect><rect x="322.53" y="401.21" width="8.69" height="0.25" style="fill: rgb(235, 235, 235); transform-origin: 326.875px 401.335px;" id="elo175gi1dr0d" class="animable"></rect><rect x="396.59" y="389.21" width="19.19" height="0.25" style="fill: rgb(235, 235, 235); transform-origin: 406.185px 389.335px;" id="el0ozcjn1qncnk" class="animable"></rect><rect x="52.46" y="390.89" width="43.19" height="0.25" style="fill: rgb(235, 235, 235); transform-origin: 74.055px 391.015px;" id="eljuzkcfygtl" class="animable"></rect><rect x="104.56" y="390.89" width="6.33" height="0.25" style="fill: rgb(235, 235, 235); transform-origin: 107.725px 391.015px;" id="elacspa18wej7" class="animable"></rect><rect x="131.47" y="395.11" width="93.68" height="0.25" style="fill: rgb(235, 235, 235); transform-origin: 178.31px 395.235px;" id="elvhdg3t1o988" class="animable"></rect><path d="M237,337.8H43.91a5.71,5.71,0,0,1-5.7-5.71V60.66A5.71,5.71,0,0,1,43.91,55H237a5.71,5.71,0,0,1,5.71,5.71V332.09A5.71,5.71,0,0,1,237,337.8ZM43.91,55.2a5.46,5.46,0,0,0-5.45,5.46V332.09a5.46,5.46,0,0,0,5.45,5.46H237a5.47,5.47,0,0,0,5.46-5.46V60.66A5.47,5.47,0,0,0,237,55.2Z" style="fill: rgb(235, 235, 235); transform-origin: 140.46px 196.4px;" id="elkzwyy23qo5o" class="animable"></path><path d="M453.31,337.8H260.21a5.72,5.72,0,0,1-5.71-5.71V60.66A5.72,5.72,0,0,1,260.21,55h193.1A5.71,5.71,0,0,1,459,60.66V332.09A5.71,5.71,0,0,1,453.31,337.8ZM260.21,55.2a5.47,5.47,0,0,0-5.46,5.46V332.09a5.47,5.47,0,0,0,5.46,5.46h193.1a5.47,5.47,0,0,0,5.46-5.46V60.66a5.47,5.47,0,0,0-5.46-5.46Z" style="fill: rgb(235, 235, 235); transform-origin: 356.75px 196.4px;" id="elk0g6nljj7jr" class="animable"></path><rect x="194.1" y="83.46" width="110.55" height="41.41" style="fill: rgb(235, 235, 235); transform-origin: 249.375px 104.165px;" id="elmu5dpcj74c9" class="animable"></rect><rect x="227.71" y="85.57" width="43.35" height="18.59" style="fill: rgb(224, 224, 224); transform-origin: 249.385px 94.865px;" id="elm7nim4t35bg" class="animable"></rect><rect x="245.19" y="111.15" width="8.38" height="8.38" style="fill: rgb(224, 224, 224); transform-origin: 249.38px 115.34px;" id="elre1xjgjlt8q" class="animable"></rect><rect x="201.08" y="94.86" width="18.2" height="16.29" style="fill: rgb(224, 224, 224); transform-origin: 210.18px 103.005px;" id="ellhuqiq9g6j" class="animable"></rect><rect x="279.48" y="94.86" width="18.2" height="16.29" style="fill: rgb(224, 224, 224); transform-origin: 288.58px 103.005px;" id="ely1bf7n9852g" class="animable"></rect><rect x="279.48" y="87.68" width="18.2" height="2.9" style="fill: rgb(250, 250, 250); transform-origin: 288.58px 89.13px;" id="elc8ev7lnkwd" class="animable"></rect><rect x="201.08" y="87.68" width="18.2" height="2.9" style="fill: rgb(250, 250, 250); transform-origin: 210.18px 89.13px;" id="el2x6jonpdr6n" class="animable"></rect><rect x="234.92" y="113.89" width="7.19" height="2.9" style="fill: rgb(250, 250, 250); transform-origin: 238.515px 115.34px;" id="elqjmigp8ymyh" class="animable"></rect><rect x="256.65" y="113.89" width="7.19" height="2.9" style="fill: rgb(250, 250, 250); transform-origin: 260.245px 115.34px;" id="eldnte24nbgrc" class="animable"></rect><g id="eloj7ji3hfjxa"><rect x="41.43" y="168.56" width="157.13" height="110.23" style="fill: rgb(224, 224, 224); transform-origin: 119.995px 223.675px; transform: rotate(90deg);" class="animable" id="elpbkog5dld0d"></rect></g><rect x="67.38" y="147.62" width="105.23" height="152.12" style="fill: rgb(235, 235, 235); transform-origin: 119.995px 223.68px;" id="el0dddpfupt52i" class="animable"></rect><polygon points="97.34 147.62 67.38 179.67 67.38 155.55 74.79 147.62 97.34 147.62" style="fill: rgb(245, 245, 245); transform-origin: 82.36px 163.645px;" id="eltt8qw091dq" class="animable"></polygon><polygon points="116.17 147.62 67.38 199.81 67.38 187.76 104.9 147.62 116.17 147.62" style="fill: rgb(245, 245, 245); transform-origin: 91.775px 173.715px;" id="elpdjo8hp713" class="animable"></polygon><polygon points="139.8 147.62 67.38 225.08 67.38 219.06 134.16 147.62 139.8 147.62" style="fill: rgb(245, 245, 245); transform-origin: 103.59px 186.35px;" id="elgaqdgjqlel8" class="animable"></polygon><polygon points="172.61 266.01 172.61 290.13 163.63 299.74 141.08 299.74 172.61 266.01" style="fill: rgb(245, 245, 245); transform-origin: 156.845px 282.875px;" id="eljahptj8yps" class="animable"></polygon><polygon points="172.61 245.86 172.61 257.93 133.53 299.74 122.24 299.74 172.61 245.86" style="fill: rgb(245, 245, 245); transform-origin: 147.425px 272.8px;" id="elbld4t0cul29" class="animable"></polygon><polygon points="172.61 220.6 172.61 226.63 104.27 299.74 98.63 299.74 172.61 220.6" style="fill: rgb(245, 245, 245); transform-origin: 135.62px 260.17px;" id="elmq3gbvne6u9" class="animable"></polygon><rect x="64.88" y="172.19" width="110.23" height="3" style="fill: rgb(224, 224, 224); transform-origin: 119.995px 173.69px;" id="eliuo7xdwcbfd" class="animable"></rect><rect x="118.49" y="173.69" width="3" height="126.99" style="fill: rgb(224, 224, 224); transform-origin: 119.99px 237.185px;" id="eln2hw2aoy56o" class="animable"></rect><g id="el5ryidygop3"><rect x="171.44" y="168.56" width="157.13" height="110.23" style="fill: rgb(224, 224, 224); transform-origin: 250.005px 223.675px; transform: rotate(90deg);" class="animable" id="elrk38rbkc3u8"></rect></g><rect x="197.39" y="147.62" width="105.23" height="152.12" style="fill: rgb(235, 235, 235); transform-origin: 250.005px 223.68px;" id="el8z0dw66gec9" class="animable"></rect><polygon points="227.35 147.62 197.39 179.67 197.39 155.55 204.8 147.62 227.35 147.62" style="fill: rgb(245, 245, 245); transform-origin: 212.37px 163.645px;" id="elje3wkhwdp6" class="animable"></polygon><polygon points="246.18 147.62 197.39 199.81 197.39 187.76 234.91 147.62 246.18 147.62" style="fill: rgb(245, 245, 245); transform-origin: 221.785px 173.715px;" id="elaqtjmeibhft" class="animable"></polygon><polygon points="269.81 147.62 197.39 225.08 197.39 219.06 264.17 147.62 269.81 147.62" style="fill: rgb(245, 245, 245); transform-origin: 233.6px 186.35px;" id="elmq49qu2t0m" class="animable"></polygon><polygon points="302.62 266.01 302.62 290.13 293.64 299.74 271.09 299.74 302.62 266.01" style="fill: rgb(245, 245, 245); transform-origin: 286.855px 282.875px;" id="el6crpr009gll" class="animable"></polygon><polygon points="302.62 245.86 302.62 257.93 263.54 299.74 252.25 299.74 302.62 245.86" style="fill: rgb(245, 245, 245); transform-origin: 277.435px 272.8px;" id="el7ckh9swr1ph" class="animable"></polygon><polygon points="302.62 220.6 302.62 226.63 234.28 299.74 228.64 299.74 302.62 220.6" style="fill: rgb(245, 245, 245); transform-origin: 265.63px 260.17px;" id="elo9yz1u2r67r" class="animable"></polygon><rect x="194.88" y="172.19" width="110.23" height="3" style="fill: rgb(224, 224, 224); transform-origin: 249.995px 173.69px;" id="el93sgwrm9vgr" class="animable"></rect><rect x="248.5" y="173.69" width="3" height="126.99" style="fill: rgb(224, 224, 224); transform-origin: 250px 237.185px;" id="elb3dgi4fyr7h" class="animable"></rect><g id="el7ihh0szpdk9"><rect x="301.44" y="168.56" width="157.13" height="110.23" style="fill: rgb(224, 224, 224); transform-origin: 380.005px 223.675px; transform: rotate(90deg);" class="animable" id="elb7su3a94i7"></rect></g><rect x="327.39" y="147.62" width="105.23" height="152.12" style="fill: rgb(235, 235, 235); transform-origin: 380.005px 223.68px;" id="el6gjgktx0l3s" class="animable"></rect><polygon points="357.35 147.62 327.39 179.67 327.39 155.55 334.81 147.62 357.35 147.62" style="fill: rgb(245, 245, 245); transform-origin: 342.37px 163.645px;" id="elutxikjgk2tc" class="animable"></polygon><polygon points="376.19 147.62 327.39 199.81 327.39 187.76 364.91 147.62 376.19 147.62" style="fill: rgb(245, 245, 245); transform-origin: 351.79px 173.715px;" id="elrh3q1j3j08" class="animable"></polygon><polygon points="399.81 147.62 327.39 225.08 327.39 219.06 394.18 147.62 399.81 147.62" style="fill: rgb(245, 245, 245); transform-origin: 363.6px 186.35px;" id="el8bhasbulf48" class="animable"></polygon><polygon points="432.62 266.01 432.62 290.13 423.64 299.74 401.1 299.74 432.62 266.01" style="fill: rgb(245, 245, 245); transform-origin: 416.86px 282.875px;" id="elezbb8ubt65s" class="animable"></polygon><polygon points="432.62 245.86 432.62 257.93 393.54 299.74 382.25 299.74 432.62 245.86" style="fill: rgb(245, 245, 245); transform-origin: 407.435px 272.8px;" id="elulxync3lyo" class="animable"></polygon><polygon points="432.62 220.6 432.62 226.63 364.29 299.74 358.64 299.74 432.62 220.6" style="fill: rgb(245, 245, 245); transform-origin: 395.63px 260.17px;" id="elf7m9fywnfu" class="animable"></polygon><rect x="324.89" y="172.19" width="110.23" height="3" style="fill: rgb(224, 224, 224); transform-origin: 380.005px 173.69px;" id="elx6osl16r6n" class="animable"></rect><rect x="378.51" y="173.69" width="3" height="126.99" style="fill: rgb(224, 224, 224); transform-origin: 380.01px 237.185px;" id="eli5s825u9iw" class="animable"></rect></g><g id="freepik--Shadow--inject-3" class="animable" style="transform-origin: 250px 416.24px;"><ellipse id="freepik--path--inject-3" cx="250" cy="416.24" rx="193.89" ry="11.32" style="fill: rgb(245, 245, 245); transform-origin: 250px 416.24px;" class="animable"></ellipse></g><g id="freepik--plant-1--inject-3" class="animable" style="transform-origin: 81.0958px 350.542px;"><path d="M79.41,372.29s4.26-9.29-.6-18.45-6.28-11.31-3.18-13.19S80.16,348,80.16,348a20.69,20.69,0,0,0,.45-13c-2.16-6.62-3.51-17.41-.56-18.57s.56,13.46,3.12,18.44A42.68,42.68,0,0,0,85.67,324c.35-5.32-.2-13.81,2.13-16s3.82-.67,1.53,11.07a122.5,122.5,0,0,0-2.27,21.29s5-15.41,8.44-15.86,3.39,4.54.49,8.87-8.5,12.08-9.42,16.06c0,0,5.54-11.59,10.53-8S92.76,352,88.6,354.51s-7,18.39-7,18.39Z" style="fill: #369022; transform-origin: 86.2603px 340.027px;" id="elzx6esihmnb" class="animable"></path><g id="elsso49p6j07"><path d="M79.41,372.29s4.26-9.29-.6-18.45-6.28-11.31-3.18-13.19S80.16,348,80.16,348a20.69,20.69,0,0,0,.45-13c-2.16-6.62-3.51-17.41-.56-18.57s.56,13.46,3.12,18.44A42.68,42.68,0,0,0,85.67,324c.35-5.32-.2-13.81,2.13-16s3.82-.67,1.53,11.07a122.5,122.5,0,0,0-2.27,21.29s5-15.41,8.44-15.86,3.39,4.54.49,8.87-8.5,12.08-9.42,16.06c0,0,5.54-11.59,10.53-8S92.76,352,88.6,354.51s-7,18.39-7,18.39Z" style="fill: rgb(255, 255, 255); opacity: 0.6; isolation: isolate; transform-origin: 86.2603px 340.027px;" class="animable" id="el50w2gjskv6p"></path></g><path d="M82.77,376.09s-4.14-9.35.83-18.43,6.41-11.22,3.33-13.14-4.61,7.26-4.61,7.26a20.75,20.75,0,0,1-.3-13c2.24-6.6,3.72-17.36.79-18.57s-.72,13.45-3.34,18.4a43.06,43.06,0,0,1-2.37-10.91c-.29-5.32.36-13.81-1.94-16s-3.81-.73-1.66,11a123.39,123.39,0,0,1,2,21.32s-4.86-15.47-8.25-16-3.44,4.49-.59,8.85,8.35,12.21,9.22,16.21c0,0-5.4-11.67-10.43-8.2s4.21,10.62,8.34,13.21,6.83,18.5,6.83,18.5Z" style="fill: #369022; transform-origin: 76.2671px 343.717px;" id="elepbost27m7u" class="animable"></path><g id="elqxvc3x77fi"><path d="M82.77,376.09s-4.14-9.35.83-18.43,6.41-11.22,3.33-13.14-4.61,7.26-4.61,7.26a20.75,20.75,0,0,1-.3-13c2.24-6.6,3.72-17.36.79-18.57s-.72,13.45-3.34,18.4a43.06,43.06,0,0,1-2.37-10.91c-.29-5.32.36-13.81-1.94-16s-3.81-.73-1.66,11a123.39,123.39,0,0,1,2,21.32s-4.86-15.47-8.25-16-3.44,4.49-.59,8.85,8.35,12.21,9.22,16.21c0,0-5.4-11.67-10.43-8.2s4.21,10.62,8.34,13.21,6.83,18.5,6.83,18.5Z" style="fill: rgb(255, 255, 255); opacity: 0.7; isolation: isolate; transform-origin: 76.2671px 343.717px;" class="animable" id="elsigq6kbhnjd"></path></g><polygon points="63.66 369.43 97.9 369.43 95.13 393.93 66.43 393.93 63.66 369.43" style="fill: rgb(38, 50, 56); transform-origin: 80.78px 381.68px;" id="elo3jd4vq6gzb" class="animable"></polygon></g><g id="freepik--plant-2--inject-3" class="animable" style="transform-origin: 425.193px 357.014px;"><path d="M423.61,370.23c0-.25-.87-25.62-5-29.59-3.9-3.8-8.41-.14-8.6,0l-.64-.77s5.39-4.39,9.94,0c4.37,4.25,5.22,29.22,5.26,30.28Z" style="fill: #369022; transform-origin: 416.97px 354.074px;" id="elkm72s5iqnra" class="animable"></path><path d="M424,375.24c-.12-1.24-2.83-30.61,8.26-43.34l.75.66c-10.8,12.4-8,42.28-8,42.58Z" style="fill: #369022; transform-origin: 428.317px 353.57px;" id="el6wv66iytvwh" class="animable"></path><path d="M423.91,372l-1-.07c0-.34,2.15-34.28-5.88-41.68l.67-.73C426.09,337.27,424,370.62,423.91,372Z" style="fill: #369022; transform-origin: 420.617px 350.76px;" id="eldcndkrdspp4" class="animable"></path><path d="M425,372h-1c0-.94.27-23.08,6.62-26.72a4.59,4.59,0,0,1,4.21-.41c3.86,1.6,5.76,8.42,5.84,8.71l-1,.26c0-.06-1.84-6.63-5.26-8a3.63,3.63,0,0,0-3.32.35C425.22,349.5,425,371.78,425,372Z" style="fill: #369022; transform-origin: 432.335px 358.27px;" id="elwowetbosk6" class="animable"></path><path d="M422.52,372l-1,0c0-.18.94-17.36-3.67-23.39-1.09-1.42-2.26-2.08-3.49-2-3,.21-5.47,4.59-5.5,4.63l-.87-.49c.12-.2,2.8-4.89,6.29-5.14,1.58-.11,3.06.7,4.36,2.41C423.48,354.3,422.56,371.31,422.52,372Z" style="fill: #369022; transform-origin: 415.302px 358.8px;" id="elzcs8xcj03fm" class="animable"></path><path d="M423.19,374.38c-.13-1.67-3.05-41.12,2.12-48.11l.81.59c-4.95,6.7-2,47-1.93,47.45Z" style="fill: #369022; transform-origin: 424.186px 350.325px;" id="eloxljrsrni8o" class="animable"></path><path d="M436.11,349s-3.07,1.13-2.16,3.81,10.65,7.09,10.65,7.09,4.08-3.74.33-9.82S436.2,347.11,436.11,349Z" style="fill: #369022; transform-origin: 440.148px 353.203px;" id="els7x8i7jfkvr" class="animable"></path><g id="elp074lndldwg"><path d="M436.11,349s-3.07,1.13-2.16,3.81,10.65,7.09,10.65,7.09,4.08-3.74.33-9.82S436.2,347.11,436.11,349Z" style="fill: rgb(255, 255, 255); opacity: 0.2; isolation: isolate; transform-origin: 440.148px 353.203px;" class="animable" id="eldzxuxktxjt7"></path></g><path d="M422.73,343.93s3.28-.14,3.47,2.68-7.11,10.64-7.11,10.64-5.2-1.88-4.08-8.93S421.92,342.19,422.73,343.93Z" style="fill: #369022; transform-origin: 420.528px 349.971px;" id="el3t2i19o7tiy" class="animable"></path><g id="el834g23v7mn9"><path d="M422.73,343.93s3.28-.14,3.47,2.68-7.11,10.64-7.11,10.64-5.2-1.88-4.08-8.93S421.92,342.19,422.73,343.93Z" style="fill: rgb(255, 255, 255); opacity: 0.2; isolation: isolate; transform-origin: 420.528px 349.971px;" class="animable" id="el101g0m5kjx5"></path></g><path d="M420,330.4s2.18-.23,2-1.56-8.5-4.76-13.41.78c0,0,3.15,5.4,7.69,5.47S420,330.4,420,330.4Z" style="fill: #369022; transform-origin: 415.3px 330.828px;" id="el4ufwsckrrcg" class="animable"></path><g id="elq1v2ttrkh2"><path d="M420,330.4s2.18-.23,2-1.56-8.5-4.76-13.41.78c0,0,3.15,5.4,7.69,5.47S420,330.4,420,330.4Z" style="fill: rgb(255, 255, 255); opacity: 0.2; isolation: isolate; transform-origin: 415.3px 330.828px;" class="animable" id="el89sudm2vmhq"></path></g><path d="M424,327.17s-2,1-2.53-.27,4.69-8.53,11.79-6.42c0,0,.18,6.24-3.64,8.71S424,327.17,424,327.17Z" style="fill: #369022; transform-origin: 427.347px 325.015px;" id="el3m0fjlcwz5u" class="animable"></path><g id="el9k73wf62gxf"><path d="M424,327.17s-2,1-2.53-.27,4.69-8.53,11.79-6.42c0,0,.18,6.24-3.64,8.71S424,327.17,424,327.17Z" style="fill: rgb(255, 255, 255); opacity: 0.2; isolation: isolate; transform-origin: 427.347px 325.015px;" class="animable" id="elnqj3eohpcnr"></path></g><path d="M413.68,348s1.51-1.22-.12-1.81-9.61-.43-9.69,7.48c0,0,9.3,1.55,10.45-1.47S413.68,348,413.68,348Z" style="fill: #369022; transform-origin: 409.288px 350.025px;" id="ell68ac07efac" class="animable"></path><g id="elyjh4ulfcx48"><path d="M413.68,348s1.51-1.22-.12-1.81-9.61-.43-9.69,7.48c0,0,9.3,1.55,10.45-1.47S413.68,348,413.68,348Z" style="fill: rgb(255, 255, 255); opacity: 0.2; isolation: isolate; transform-origin: 409.288px 350.025px;" class="animable" id="eleyrbpooeed7"></path></g><path d="M432.65,330.2s-1.51-1.21.12-1.81,9.61-.42,9.7,7.49c0,0-9.3,1.54-10.46-1.47S432.65,330.2,432.65,330.2Z" style="fill: #369022; transform-origin: 437.045px 332.227px;" id="elzbe3y5cvmn" class="animable"></path><g id="el72e93skg1u6"><path d="M432.65,330.2s-1.51-1.21.12-1.81,9.61-.42,9.7,7.49c0,0-9.3,1.54-10.46-1.47S432.65,330.2,432.65,330.2Z" style="fill: rgb(255, 255, 255); opacity: 0.2; isolation: isolate; transform-origin: 437.045px 332.227px;" class="animable" id="el6kzgzqt3htm"></path></g><path d="M427.73,336.58s-.13-1.48,1.07-.9,5.35,5.07,1,9.33c0,0-5.81-4.3-4.76-6.54S427.73,336.58,427.73,336.58Z" style="fill: #369022; transform-origin: 428.327px 340.278px;" id="elgdbgrrkdndb" class="animable"></path><g id="elyo4ejxsxll"><path d="M427.73,336.58s-.13-1.48,1.07-.9,5.35,5.07,1,9.33c0,0-5.81-4.3-4.76-6.54S427.73,336.58,427.73,336.58Z" style="fill: rgb(255, 255, 255); opacity: 0.2; isolation: isolate; transform-origin: 428.327px 340.278px;" class="animable" id="elc248diqp2k"></path></g><path d="M412.33,338.69s.91-1.18-.42-1.33-7.23,1.43-5.85,7.34c0,0,7.2-.54,7.51-3S412.33,338.69,412.33,338.69Z" style="fill: #369022; transform-origin: 409.732px 341.025px;" id="elxv99ifxvhg" class="animable"></path><g id="elc7hrolejvuc"><path d="M412.33,338.69s.91-1.18-.42-1.33-7.23,1.43-5.85,7.34c0,0,7.2-.54,7.51-3S412.33,338.69,412.33,338.69Z" style="fill: rgb(255, 255, 255); opacity: 0.2; isolation: isolate; transform-origin: 409.732px 341.025px;" class="animable" id="elye0ud6hu0hn"></path></g><polygon points="436.69 393.93 411.95 393.93 409.29 366.85 439.36 366.85 436.69 393.93" style="fill: rgb(38, 50, 56); transform-origin: 424.325px 380.39px;" id="elwyf6op85jks" class="animable"></polygon><g id="elds4mkuf1e0t"><polygon points="436.69 393.93 411.95 393.93 409.29 366.85 439.36 366.85 436.69 393.93" style="fill: rgb(255, 255, 255); opacity: 0.5; isolation: isolate; transform-origin: 424.325px 380.39px;" class="animable" id="elsr2198v95r"></polygon></g><rect x="407.96" y="363.86" width="32.71" height="5.98" style="fill: rgb(38, 50, 56); transform-origin: 424.315px 366.85px;" id="elsw376j6vxsg" class="animable"></rect><g id="elqinenknvcom"><rect x="407.96" y="363.86" width="32.71" height="5.98" style="fill: rgb(255, 255, 255); opacity: 0.2; isolation: isolate; transform-origin: 424.315px 366.85px;" class="animable" id="elkcfyrje56nn"></rect></g></g><g id="freepik--Bench--inject-3" class="animable" style="transform-origin: 250.005px 369.59px;"><rect x="261.84" y="350.02" width="4.65" height="43.91" style="fill: rgb(38, 50, 56); transform-origin: 264.165px 371.975px;" id="el0o8q4kzom8w" class="animable"></rect><rect x="384.29" y="350.02" width="4.65" height="43.91" style="fill: rgb(38, 50, 56); transform-origin: 386.615px 371.975px;" id="elra8wvhq3tg" class="animable"></rect><g id="el8ozy453d2k5"><g style="opacity: 0.6; transform-origin: 325.39px 371.975px;" class="animable" id="el24l5eyt75fj"><rect x="261.84" y="350.02" width="4.65" height="43.91" style="fill: rgb(255, 255, 255); transform-origin: 264.165px 371.975px;" id="elwgx4gok6si" class="animable"></rect><rect x="384.29" y="350.02" width="4.65" height="43.91" style="fill: rgb(255, 255, 255); transform-origin: 386.615px 371.975px;" id="eldyt13z6ewq" class="animable"></rect></g></g><rect x="255.61" y="345.25" width="139.58" height="8.43" style="fill: rgb(38, 50, 56); transform-origin: 325.4px 349.465px;" id="elgzww1s599vp" class="animable"></rect><g id="elkj0bqlcgdp"><rect x="255.61" y="345.25" width="139.58" height="8.43" style="fill: rgb(255, 255, 255); opacity: 0.7; transform-origin: 325.4px 349.465px;" class="animable" id="elsg5tih32e5p"></rect></g><rect x="111.05" y="350.02" width="4.65" height="43.91" style="fill: rgb(38, 50, 56); transform-origin: 113.375px 371.975px;" id="elyhet10d7oc" class="animable"></rect><rect x="233.5" y="350.02" width="4.65" height="43.91" style="fill: rgb(38, 50, 56); transform-origin: 235.825px 371.975px;" id="el5juhz3w4jrc" class="animable"></rect><g id="elaixqmeqfja"><g style="opacity: 0.6; transform-origin: 174.6px 371.975px;" class="animable" id="el826xdnxbz6k"><rect x="111.05" y="350.02" width="4.65" height="43.91" style="fill: rgb(255, 255, 255); transform-origin: 113.375px 371.975px;" id="el69h38evthvh" class="animable"></rect><rect x="233.5" y="350.02" width="4.65" height="43.91" style="fill: rgb(255, 255, 255); transform-origin: 235.825px 371.975px;" id="el84ys40ldaoo" class="animable"></rect></g></g><rect x="104.82" y="345.25" width="139.58" height="8.43" style="fill: rgb(38, 50, 56); transform-origin: 174.61px 349.465px;" id="elb8twf8e9dh" class="animable"></rect><g id="elox4jwse484o"><rect x="104.82" y="345.25" width="139.58" height="8.43" style="fill: rgb(255, 255, 255); opacity: 0.7; transform-origin: 174.61px 349.465px;" class="animable" id="elm9z4ctdf2yi"></rect></g></g><g id="freepik--Characters--inject-3" class="animable" style="transform-origin: 233.107px 275.18px;"><g id="freepik--group--inject-3" class="animable" style="transform-origin: 229.405px 337.173px;"><polygon points="269.36 260.19 260.55 285.34 249.67 280.6 260.36 259.49 269.36 260.19" style="fill: rgb(238, 193, 187); transform-origin: 259.515px 272.415px;" id="eli6afakkbyd" class="animable"></polygon><path d="M267.74,264.81l-9.37-1.4a15.78,15.78,0,0,0,.42-2.1l-1-6.42a1,1,0,0,1,.89-1.19.59.59,0,0,1,.23,0c2.79.23,4.81.53,8.32.76,2.17.14,8.7.34,11.69.53s3.18,3.17,1.94,3.36c-5.56.84-9.79,2.22-11.65,3.68A19.51,19.51,0,0,0,267.74,264.81Z" style="fill: rgb(238, 193, 187); transform-origin: 269.675px 259.249px;" id="elv2oqsvmb69d" class="animable"></path><path d="M264.42,276.62A1002.79,1002.79,0,0,0,242.48,380q-.93,5.84-1.82,11.86l-27.33-9.48s5.51-20.58,13-44.62c7.68-24.73,17.42-53.13,25.35-66.55Z" style="fill: #369022; transform-origin: 238.875px 331.535px;" id="ela3ab8vene2u" class="animable"></path><g id="el3qkstfgvki5"><path d="M242.48,380q-.93,5.84-1.82,11.86l-27.33-9.48s5.51-20.58,13-44.62a146.8,146.8,0,0,1,10.61,41.42A21.46,21.46,0,0,1,242.48,380Z" style="opacity: 0.2; isolation: isolate; transform-origin: 227.905px 364.81px;" class="animable" id="elze7708ahh6n"></path></g><polygon points="142.41 411.27 155.26 385.52 166.47 389.41 151.44 411.27 142.41 411.27" style="fill: rgb(238, 193, 187); transform-origin: 154.44px 398.395px;" id="elkib35yj7hxm" class="animable"></polygon><path d="M143.67,406.54l9.45.68a14.73,14.73,0,0,0-.25,2.12l1.48,6.33a1.05,1.05,0,0,1-.79,1.26l-.23,0c-2.8,0-4.85-.16-8.36-.11-2.17,0-8.7.33-11.69.37s-3.42-2.92-2.2-3.2c5.48-1.27,9.59-3,11.33-4.58A19,19,0,0,0,143.67,406.54Z" style="fill: rgb(238, 193, 187); transform-origin: 142.41px 411.865px;" id="elp6dwqg4nyw" class="animable"></path><path d="M249.38,381.19l-5.47,34.75s-23.11.29-31-2.38c-1.94-.66-4-3.89-6.14-8.4-6.55-13.88-13.67-39.9-19.44-40.7-7.65-1-27.69,42.08-27.69,42.08l-16.27-5.82s18.39-61.54,43.83-67.64c19.78-4.75,43.12,44.09,43.12,44.09l18,3.79Z" style="fill: #369022; transform-origin: 196.375px 374.352px;" id="el9zka2aa6mme" class="animable"></path><g id="elgrym4oss2hi"><path d="M249.38,381.19l-5.47,34.75s-23.11.29-31-2.38c-1.94-.66-4-3.89-6.14-8.4,3.44-9,10.36-16.7,10.36-16.7a61.81,61.81,0,0,1,28.35-7.88l2.83.38Z" style="opacity: 0.2; isolation: isolate; transform-origin: 228.075px 398.265px;" class="animable" id="elz37usy3qt1"></path></g><path d="M270.4,395.65s1.94-22,10.48-39.07l7.84,1.72s-2.12,35.06-1.3,43.13S270.28,405.71,270.4,395.65Z" style="fill: #369022; transform-origin: 279.56px 381.19px;" id="ell412vy4z7vh" class="animable"></path><g id="elsrv6zotslid"><path d="M270.4,395.65s1.94-22,10.48-39.07l7.84,1.72s-2.12,35.06-1.3,43.13S270.28,405.71,270.4,395.65Z" style="opacity: 0.2; isolation: isolate; transform-origin: 279.56px 381.19px;" class="animable" id="elpahkfazn67j"></path></g><path d="M250.92,379.21l-.14.49-10.2,36.72s-15.29,4.58-27.69,2.82l6.47-26.4h0l.84-3.42S230.93,380.23,250.92,379.21Z" style="fill: #369022; transform-origin: 231.905px 399.426px;" id="elprxz6ra5e8" class="animable"></path><path d="M250.92,379.21l-.14.49-1.4,3.25c-15.16-.08-30,9.89-30,9.89h0l.84-3.42S230.93,380.23,250.92,379.21Z" style="fill: rgb(38, 50, 56); transform-origin: 235.15px 386.025px;" id="elud37xn1opb" class="animable"></path><path d="M292.61,392l3.47,22.9s-18,8-52.17,1.07l5.47-33S256.54,382,292.61,392Z" style="fill: rgb(238, 193, 187); transform-origin: 269.995px 400.87px;" id="el5chz8j74v0r" class="animable"></path><path d="M251.75,379.5s25.46,3.27,34.36,12.56c0,0-9.65-4.35-18.89-4.35-5,0-16.09,11.61-16.09,11.61Z" style="fill: #369022; transform-origin: 268.62px 389.41px;" id="el6vwyqi6mjan" class="animable"></path><path d="M263.26,388.36s25.32-.05,31.25,12.36c0,0-3.73-15.64-34-14.81Z" style="fill: rgb(38, 50, 56); transform-origin: 277.51px 393.299px;" id="elyrzrnfi88cn" class="animable"></path><path d="M288.72,399.24s1,8,4.69,10.44c1.3-2,4.25-3.2,7.49-3.88a44.15,44.15,0,0,1,7-.79c.76,0,1.47,0,2.11,0l-9.61-7.7-.44.2c-.43.18-.87.37-1.32.52a8.79,8.79,0,0,1-3.33.57,7.81,7.81,0,0,1-2.28-.18c-.51-.22-1-.76-1.51-2C289.73,395.75,288.72,399.24,288.72,399.24Z" style="fill: rgb(238, 193, 187); transform-origin: 299.365px 403.007px;" id="elkylkvtqzjkf" class="animable"></path><g id="elathgyhu1x96"><path d="M293,398.38a15.94,15.94,0,0,0,7.87,7.42,44.15,44.15,0,0,1,7-.79L300,397.47c-.43.18-.87.37-1.32.52a8.79,8.79,0,0,1-3.33.57A7.81,7.81,0,0,1,293,398.38Z" style="opacity: 0.2; isolation: isolate; transform-origin: 300.435px 401.635px;" class="animable" id="elpbvv4kv620c"></path></g><path d="M295.69,410.3S282.31,393,249.38,382.9l1.54-3.69s37.62,13.17,46.68,28.59Z" style="fill: rgb(38, 50, 56); transform-origin: 273.49px 394.755px;" id="elge1xmtdka4g" class="animable"></path><path d="M249.38,382.9s28.75,4.54,46.31,27.4l.39,4.57s-20.23,11.73-52.17,1.76Z" style="fill: #369022; transform-origin: 269.995px 401.773px;" id="el3n43og7bqdn" class="animable"></path><polygon points="251.75 379.5 247.63 378.85 240.58 416.42 245.85 417.21 251.75 379.5" style="fill: rgb(38, 50, 56); transform-origin: 246.165px 398.03px;" id="eldihx4z17ygp" class="animable"></polygon><path d="M317,380.58s-9.63,1.84-11.42,7.93,15.2.08,15.2.08Z" style="fill: rgb(38, 50, 56); transform-origin: 313.114px 385.909px;" id="el9sccodjvzo" class="animable"></path><path d="M303.25,405.15a8.79,8.79,0,0,1-6.57-8.38,9.78,9.78,0,0,1,2.43-6.79,10,10,0,0,1,.72-.74c4.73-4.36,14.23-8.57,20-4a9.54,9.54,0,0,1-1.92,16.12C311.62,404.42,308.07,406.5,303.25,405.15Z" style="fill: rgb(238, 193, 187); transform-origin: 310.053px 394.417px;" id="elokkyizvvo2o" class="animable"></path><path d="M311,393.11a.88.88,0,0,1-1.23-.09c-.18-.33.08-.81.57-1.08s1.05-.24,1.23.08S311.53,392.83,311,393.11Z" style="fill: rgb(38, 50, 56); transform-origin: 310.672px 392.538px;" id="els0ah2y6fgw" class="animable"></path><path d="M307.91,387.52a.89.89,0,0,1-1.22-.09c-.18-.32.08-.81.57-1.09s1.05-.23,1.22.09S308.38,387.25,307.91,387.52Z" style="fill: rgb(38, 50, 56); transform-origin: 307.582px 386.939px;" id="el35v425as8gm" class="animable"></path><path d="M308.66,389.43a20.23,20.23,0,0,1-5.55,0,3.28,3.28,0,0,0,.88,2.63Z" style="fill: rgb(212, 130, 125); transform-origin: 305.874px 390.745px;" id="elhczvgvujne" class="animable"></path><path d="M309.71,383.74a.36.36,0,0,0,0,.35,2.7,2.7,0,0,1,.48,2.36.33.33,0,0,0,.19.42.33.33,0,0,0,.43-.19h0a3.27,3.27,0,0,0-.56-3,.34.34,0,0,0-.46-.09h0A.58.58,0,0,0,309.71,383.74Z" style="fill: rgb(38, 50, 56); transform-origin: 310.311px 385.215px;" id="elz8lx2vqo70c" class="animable"></path><path d="M314.52,392.78a.33.33,0,0,0,.19.06.33.33,0,0,0,.25-.4h0a3.3,3.3,0,0,0-1.94-2.34.33.33,0,0,0-.42.2h0a.33.33,0,0,0,.2.42h0a2.69,2.69,0,0,1,1.51,1.88A.34.34,0,0,0,314.52,392.78Z" style="fill: rgb(38, 50, 56); transform-origin: 313.775px 391.461px;" id="eln0yur43ook" class="animable"></path><path d="M323,392.7l-1.45,0c.35,2.4-2.24,3.18-3.53,3.3-2.76.26-5.69,3.36-6.24,5.84,0,0,1-.44,1.22.52s-5.15,3.32-8.46,2.91c0,0,3.49,1.37,9.66.06,5.71-1.22,10-3.15,11.45-5.16Z" style="fill: rgb(38, 50, 56); transform-origin: 315.095px 399.299px;" id="elptsg34tip1" class="animable"></path><path d="M314.38,406.83a6.59,6.59,0,0,1-4.77-1.69c-1.72-1.56-.62-3.57,1.5-4.17,1.89-.52,5.11-.37,6,1.71A3,3,0,0,1,314.38,406.83Z" style="fill: rgb(238, 193, 187); transform-origin: 313.051px 403.778px;" id="el3nf2wquiglm" class="animable"></path><path d="M316.05,387.71s-2.47-3.94,0-7.13,8.24-.16,10.82,5.58,2.85,16.33-7.69,18c0,0,3.41-8.92,2.48-12.27l-.92,1.37a8,8,0,0,1,0-3.9l-1.7,2.34s-1.58-4.09-1.05-6.53A3.2,3.2,0,0,0,316.05,387.71Z" style="fill: rgb(38, 50, 56); transform-origin: 321.659px 391.723px;" id="ellzf12r5wg4q" class="animable"></path><path d="M305.4,395.73l-.26.56h0a8,8,0,0,1-.94,1.53,2.52,2.52,0,0,1-1.71,1.12c-1.14.07-2.27-1.35-2.8-2.14-.21-.3-.33-.51-.33-.51a20.36,20.36,0,0,0,3.13-3.46l.37.28C303.69,393.77,305.59,395.31,305.4,395.73Z" style="fill: rgb(38, 50, 56); transform-origin: 302.387px 395.886px;" id="elfvj8tindafc" class="animable"></path><path d="M305.4,395.73l-.26.56L302.39,394l.47-.88C303.69,393.77,305.59,395.31,305.4,395.73Z" style="fill: rgb(255, 255, 255); transform-origin: 303.902px 394.705px;" id="eldpygqpbttiv" class="animable"></path><path d="M304.2,397.83a2.52,2.52,0,0,1-1.71,1.12c-1.14.07-2.27-1.35-2.8-2.14C300.6,396.6,303.13,396.17,304.2,397.83Z" style="fill: rgb(222, 87, 83); transform-origin: 301.945px 397.776px;" id="elpr62zyx9gc" class="animable"></path><g id="elhzqpjzbaq1t"><path d="M293.92,414.88s-1.44,1-3.64,2.45a66,66,0,0,1-21.66,3.32h0c-.84-11.92,10.94-19.92,10.94-19.92Z" style="opacity: 0.2; isolation: isolate; transform-origin: 281.249px 410.694px;" class="animable" id="el430sxedh831"></path></g></g><g id="freepik--group--inject-3" class="animable" style="transform-origin: 234.06px 255.851px;"><polygon points="243.84 138.77 241.03 165.27 252.89 165.65 252.27 142 243.84 138.77" style="fill: rgb(235, 179, 118); transform-origin: 246.96px 152.21px;" id="el4wqp4q359dy" class="animable"></polygon><path d="M243.32,143.65l9.07,2.74a14.36,14.36,0,0,1,.53-2.07l3.64-5.38a1.06,1.06,0,0,0-.29-1.46l-.21-.11c-2.62-1-4.58-1.58-7.85-2.88-2-.8-8-3.42-10.78-4.52s-4.23,1.5-3.2,2.2c4.67,3.14,7.9,6.21,9,8.32A19.23,19.23,0,0,1,243.32,143.65Z" style="fill: rgb(235, 179, 118); transform-origin: 245.316px 138.046px;" id="elyfm2b5rkhna" class="animable"></path><path d="M303.4,245.85S262,215.58,258.3,208.77s-3.67-54-3.67-54l-14.45.69s-4.87,47-1.73,60.5,31,40,31,40Z" style="fill: #369022; transform-origin: 270.398px 205.365px;" id="eliomkgnjmz8f" class="animable"></path><g id="el1bd2q65ay9v"><path d="M303.4,245.85l-34,10.13s-21.64-20.59-28.91-34.72a23.37,23.37,0,0,1-2.07-5.28c-3.14-13.52,1.73-60.5,1.73-60.5l14.45-.7c0,.51,0,47.22,3.67,54,1.56,2.9,9.92,10,19,17.25C289.68,235.82,303.4,245.85,303.4,245.85Z" style="fill: rgb(255, 255, 255); opacity: 0.7; transform-origin: 270.383px 205.38px;" class="animable" id="elazfpefrlkch"></path></g><g id="elzrhhufjvrvb"><path d="M303.4,245.85l-34,10.13s-21.64-20.59-28.91-34.72A102.63,102.63,0,0,1,277.33,226C289.68,235.82,303.4,245.85,303.4,245.85Z" style="opacity: 0.2; isolation: isolate; transform-origin: 271.945px 238.545px;" class="animable" id="elwakji6qgnl"></path></g><polygon points="142.66 246.16 168.32 253.33 170.66 241.7 147.24 238.38 142.66 246.16" style="fill: rgb(235, 179, 118); transform-origin: 156.66px 245.855px;" id="el2zfcekhmlm8" class="animable"></polygon><path d="M147.38,247.48l4.21-8.49a15.34,15.34,0,0,1-2-.86l-4.7-4.49a1,1,0,0,0-1.48.05.62.62,0,0,0-.14.18c-1.42,2.42-2.33,4.25-4.15,7.26-1.12,1.85-4.7,7.32-6.25,9.88s.77,4.43,1.64,3.52c3.87-4.08,7.43-6.75,9.69-7.44A19.24,19.24,0,0,1,147.38,247.48Z" style="fill: rgb(235, 179, 118); transform-origin: 141.97px 244.05px;" id="elyojf1r6eyt" class="animable"></path><path d="M319.14,274.77s2.17-24.18-16.91-32.27c-21.26-9-63.7,5.21-85.7,4.86-8.49-.14-57-10.74-57-10.74l-3,16.72s44.22,13.52,62,15.78,55.6-3,55.6-3l12.6,9.68Z" style="fill: #369022; transform-origin: 237.872px 256.21px;" id="el27cardjui7" class="animable"></path><g id="el2890hw8yyt3"><path d="M319.14,274.77l-32.48,1-1.59-1.23-11-8.45s-2.06.29-5.45.7c-11.12,1.36-36.51,4-50.15,2.33-17.79-2.26-62-15.78-62-15.78l3-16.72s48.55,10.6,57,10.74c22,.35,64.44-13.88,85.7-4.87a26,26,0,0,1,14.88,16.73A42.59,42.59,0,0,1,319.14,274.77Z" style="fill: rgb(255, 255, 255); opacity: 0.7; transform-origin: 237.833px 256.195px;" class="animable" id="el2bz1oxrv97"></path></g><g id="elgame67fp36e"><path d="M317.11,259.22c-5.35,7.57-17.24,15.16-32,15.32l-11-8.45s-2.06.29-5.45.7c5.65-6.82,19.21-20.74,37.06-22.54A27.15,27.15,0,0,1,317.11,259.22Z" style="opacity: 0.2; isolation: isolate; transform-origin: 292.885px 259.395px;" class="animable" id="el79t61thqytr"></path></g><path d="M319.32,274.31s3-19.3-9-27.79c0,0-28.38,9.51-34.92,24.9,0,0,4.91,10.77,6,17Z" style="fill: #369022; transform-origin: 297.527px 267.47px;" id="elabdmhv0rmv9" class="animable"></path><g id="el2cpzh15voa"><path d="M319.32,274.31l-35.14,13.06-2.73,1c-1.11-6.2-6-17-6-17a25.72,25.72,0,0,1,2.06-3.88c8.2-12.92,32.86-21,32.86-21C322.34,255,319.32,274.31,319.32,274.31Z" style="fill: rgb(255, 255, 255); opacity: 0.7; transform-origin: 297.555px 267.43px;" class="animable" id="elyhybyskukno"></path></g><path d="M284.18,287.37l-2.73,1c-1.11-6.2-6-17-6-17a25.72,25.72,0,0,1,2.06-3.88C279.69,271.92,283,279.54,284.18,287.37Z" style="fill: #369022; transform-origin: 279.815px 277.93px;" id="el4zj3bj6dbm6" class="animable"></path><path d="M312.22,325.07c-3.39,11.71-20.42,44.41-20.42,44.41l-7.5-3.42,7.5-43.27Z" style="fill: #369022; transform-origin: 298.26px 346.135px;" id="elbwy4hi1nvlm" class="animable"></path><g id="elpmiat3dtghr"><path d="M312.22,325.07c-3.39,11.71-20.42,44.41-20.42,44.41l-7.5-3.42,7.5-43.27Z" style="fill: rgb(255, 255, 255); opacity: 0.5; transform-origin: 298.26px 346.135px;" class="animable" id="elixrrex6j0te"></path></g><path d="M308.83,353.9a18.3,18.3,0,0,0-4-1.56,2.34,2.34,0,0,1,1.33-2Z" style="fill: rgb(213, 135, 69); transform-origin: 306.83px 352.12px;" id="elrarskkere2n" class="animable"></path><path d="M308.77,355.48c-.4-.57-.41-1.25,0-1.52s1,0,1.42.55.42,1.26,0,1.53S309.18,356.06,308.77,355.48Z" style="fill: rgb(46, 53, 58); transform-origin: 309.486px 355.002px;" id="elrdgy172sfw" class="animable"></path><path d="M305.17,347.83a10.44,10.44,0,0,1-.25-1,10,10,0,0,1,.66-5.94,9.75,9.75,0,0,1,.71-1.36,9.15,9.15,0,0,1,6.59-4.3,9.29,9.29,0,0,1,3.63.26c5,1.31,7.07,5,11.07,11a9.83,9.83,0,0,1-6.69,15.34C313.38,362.87,307.12,354.18,305.17,347.83Z" style="fill: rgb(235, 179, 118); transform-origin: 317.036px 348.536px;" id="el63pw7cpntkp" class="animable"></path><g id="eluxqi0oj83i"><path d="M305.58,340.85a9.75,9.75,0,0,1,.71-1.36,9.15,9.15,0,0,1,6.59-4.3,10.62,10.62,0,0,1,.13,2.75A14.18,14.18,0,0,1,305.58,340.85Z" style="opacity: 0.2; isolation: isolate; transform-origin: 309.313px 338.02px;" class="animable" id="elhi51wmeb4y4"></path></g><path d="M313.26,325.51c-4.67-1-11.51,4.46-11.51,4.46s-3.9,4-2.06,4.89c3-1.17,5.08-.67,6.6.64a9.15,9.15,0,0,1,2.12,3,18.36,18.36,0,0,1,.81,1.88l13.23,1.38C318.59,337.93,312.22,330.53,313.26,325.51Z" style="fill: rgb(235, 179, 118); transform-origin: 310.823px 333.574px;" id="elhip7me3hydi" class="animable"></path><path d="M324.22,363.38s-1,2-5.38,1c-3.66-.82-2.34-4-5.44-6s-2.84-5.92-2.84-5.92-.37-3.72,2.1-4.93c0,0,.54-3.46-1.19-5.69s.6-6.17,5.35-8.89,4.6,1.33,4.6,1.33a22.53,22.53,0,0,1,6.39,3.35,21.1,21.1,0,0,1,5.69,6.58,11.47,11.47,0,0,1,1.5,8.75C334,358.33,327.51,364.54,324.22,363.38Z" style="fill: rgb(38, 50, 56); transform-origin: 322.918px 348.335px;" id="eleazz536yukw" class="animable"></path><path d="M314.63,348.16a4.63,4.63,0,0,0-3.68-1.53c-1.57.21-1.35,2.47-.07,4.21,1.15,1.55,3.37,3.36,4.53,2.26S316.05,349.56,314.63,348.16Z" style="fill: rgb(235, 179, 118); transform-origin: 312.946px 350.031px;" id="elivldi7gy94" class="animable"></path><path d="M315,360s-2.07,7,2.78,10.44,2.51-1.48,2.51-1.48,5.12.71,6.56-1.09-2.53-1.6-2.53-1.6,14.54-5.43,10.85-14.25S315,360,315,360Z" style="fill: rgb(38, 50, 56); transform-origin: 325.165px 360.561px;" id="elckj7tshoaii" class="animable"></path><path d="M310.75,357.8a.35.35,0,0,1-.32-.2.36.36,0,0,1,.15-.48,1,1,0,0,0,.39-.78.36.36,0,1,1,.72.1,1.62,1.62,0,0,1-.78,1.32A.32.32,0,0,1,310.75,357.8Z" style="fill: rgb(46, 53, 58); transform-origin: 311.042px 356.912px;" id="el06tzymm7zjh8" class="animable"></path><path d="M317.41,322.79l3,4.35s-11.73,14.44-20,10.09S317.41,322.79,317.41,322.79Z" style="fill: #369022; transform-origin: 309.579px 330.418px;" id="el5xz8o2dgs12" class="animable"></path><path d="M296.08,346.61s15.86-13.27,21.33-23.82c0,0,8.76-28.72,2.17-47.22l-39.09,9.06S273,329,296.08,346.61Z" style="fill: #369022; transform-origin: 300.683px 311.09px;" id="elixm39pkzls" class="animable"></path><g id="elfmqwqj34fxl"><path d="M317.41,322.79c-5.47,10.55-21.33,23.82-21.33,23.82a32.69,32.69,0,0,1-4.4-4.06c-6-6.68-9.25-15.57-10.86-24.37-3.13-16.93-.33-33.55-.33-33.55l39.09-9.06C326.17,294.07,317.41,322.79,317.41,322.79Z" style="fill: rgb(255, 255, 255); opacity: 0.7; transform-origin: 300.687px 311.09px;" class="animable" id="elog7bvx2iywr"></path></g><path d="M281.28,320.53c-5.4-17.08-.79-35.9-.79-35.9l2.94-.68C283.58,286.92,279.4,305.14,281.28,320.53Z" style="fill: #369022; transform-origin: 281.045px 302.24px;" id="el398c5qz18qd" class="animable"></path><g id="el48cs6j8ducf"><path d="M291.68,342.55c-6-6.68-9.25-15.57-10.86-24.37,3.85,2.15,9.88,7.22,12.28,18.52C293.93,340.6,293.21,342.34,291.68,342.55Z" style="opacity: 0.2; isolation: isolate; transform-origin: 287.135px 330.365px;" class="animable" id="elt3tr28k1ql"></path></g><path d="M282.66,325S275.49,344,280.58,382L288.72,370s3.71-15.41,7.36-23.4C296.08,346.61,293.49,329.46,282.66,325Z" style="fill: #369022; transform-origin: 287.417px 353.5px;" id="elssbps3prtn" class="animable"></path><g id="el42acldhvw8"><path d="M282.66,325S275.49,344,280.58,382L288.72,370s3.71-15.41,7.36-23.4C296.08,346.61,293.49,329.46,282.66,325Z" style="fill: rgb(255, 255, 255); opacity: 0.7; transform-origin: 287.417px 353.5px;" class="animable" id="eleduy6a4fljn"></path></g><polygon points="280.2 289.07 321.55 280.08 320.07 273.15 280.2 283.64 280.2 289.07" style="fill: #369022; transform-origin: 300.875px 281.11px;" id="el6wrx7v8goys" class="animable"></polygon></g><path d="M288,375.22s3-13.55,5.26-19.26c0,0-1.22-1.71-1.05-2.81s1.32-8.63,1.32-8.63l7.42-.68s-1.07,9.21-1.2,10-2.7,2.78-2.7,2.78-1.55,8-2.35,18Z" style="fill: rgb(238, 193, 187); transform-origin: 294.475px 359.53px;" id="elz68992oajnh" class="animable"></path><path d="M279,406.87s1-22.1,8.79-39.49l7.91,1.38s-.6,35.13.56,43.15S279.28,416.93,279,406.87Z" style="fill: #369022; transform-origin: 287.657px 391.94px;" id="elfyhg33gzdas" class="animable"></path></g><defs>     <filter id="active" height="200%">         <feMorphology in="SourceAlpha" result="DILATED" operator="dilate" radius="2"></feMorphology>                <feFlood flood-color="#32DFEC" flood-opacity="1" result="PINK"></feFlood>        <feComposite in="PINK" in2="DILATED" operator="in" result="OUTLINE"></feComposite>        <feMerge>            <feMergeNode in="OUTLINE"></feMergeNode>            <feMergeNode in="SourceGraphic"></feMergeNode>        </feMerge>    </filter>    <filter id="hover" height="200%">        <feMorphology in="SourceAlpha" result="DILATED" operator="dilate" radius="2"></feMorphology>                <feFlood flood-color="#ff0000" flood-opacity="0.5" result="PINK"></feFlood>        <feComposite in="PINK" in2="DILATED" operator="in" result="OUTLINE"></feComposite>        <feMerge>            <feMergeNode in="OUTLINE"></feMergeNode>            <feMergeNode in="SourceGraphic"></feMergeNode>        </feMerge>            <feColorMatrix type="matrix" values="0   0   0   0   0                0   1   0   0   0                0   0   0   0   0                0   0   0   1   0 "></feColorMatrix>    </filter></defs></svg>